solid OpenSCAD_Model
  facet normal 0 -1 0
    outer loop
      vertex 12.875 27.875 0
      vertex 17.625 27.875 0
      vertex 17.625 27.875 4
    endloop
  endfacet
  facet normal 0 -1 0
    outer loop
      vertex 12.875 27.875 4
      vertex 12.875 27.875 0
      vertex 17.625 27.875 4
    endloop
  endfacet
  facet normal 0 0 -1
    outer loop
      vertex 17.625 17.125 0
      vertex 90 45 0
      vertex 0 0 0
    endloop
  endfacet
  facet normal 0 0 -1
    outer loop
      vertex 77.125 17.125 0
      vertex 90 45 0
      vertex 90 0 0
    endloop
  endfacet
  facet normal 0 0 -1
    outer loop
      vertex 72.375 17.125 0
      vertex 0 0 0
      vertex 72.375 27.875 0
    endloop
  endfacet
  facet normal 0 0 -1
    outer loop
      vertex 0 45 0
      vertex 12.875 17.125 0
      vertex 0 0 0
    endloop
  endfacet
  facet normal 0 0 -1
    outer loop
      vertex 12.875 17.125 0
      vertex 17.625 17.125 0
      vertex 0 0 0
    endloop
  endfacet
  facet normal 0 0 -1
    outer loop
      vertex 0 45 0
      vertex 90 45 0
      vertex 17.625 27.875 0
    endloop
  endfacet
  facet normal 0 0 -1
    outer loop
      vertex 0 45 0
      vertex 17.625 27.875 0
      vertex 12.875 27.875 0
    endloop
  endfacet
  facet normal 0 0 -1
    outer loop
      vertex 0 45 0
      vertex 12.875 27.875 0
      vertex 12.875 17.125 0
    endloop
  endfacet
  facet normal 0 0 -1
    outer loop
      vertex 0 0 0
      vertex 72.375 17.125 0
      vertex 90 0 0
    endloop
  endfacet
  facet normal 0 0 -1
    outer loop
      vertex 72.375 17.125 0
      vertex 77.125 17.125 0
      vertex 90 0 0
    endloop
  endfacet
  facet normal 0 0 -1
    outer loop
      vertex 72.375 27.875 0
      vertex 90 45 0
      vertex 77.125 27.875 0
    endloop
  endfacet
  facet normal 0 0 -1
    outer loop
      vertex 77.125 27.875 0
      vertex 90 45 0
      vertex 77.125 17.125 0
    endloop
  endfacet
  facet normal 0 0 -1
    outer loop
      vertex 0 0 0
      vertex 90 45 0
      vertex 72.375 27.875 0
    endloop
  endfacet
  facet normal 0 0 -1
    outer loop
      vertex 17.625 27.875 0
      vertex 90 45 0
      vertex 17.625 17.125 0
    endloop
  endfacet
  facet normal 1 0 0
    outer loop
      vertex 12.875 17.125 0
      vertex 12.875 27.875 0
      vertex 12.875 27.875 4
    endloop
  endfacet
  facet normal 1 0 0
    outer loop
      vertex 12.875 17.125 4
      vertex 12.875 17.125 0
      vertex 12.875 27.875 4
    endloop
  endfacet
  facet normal 0 0 1
    outer loop
      vertex 77.125 17.125 4
      vertex 90 0 4
      vertex 90 45 4
    endloop
  endfacet
  facet normal 0 0 1
    outer loop
      vertex 17.625 17.125 4
      vertex 0 0 4
      vertex 90 45 4
    endloop
  endfacet
  facet normal 0 0 1
    outer loop
      vertex 77.125 27.875 4
      vertex 77.125 17.125 4
      vertex 90 45 4
    endloop
  endfacet
  facet normal 0 0 1
    outer loop
      vertex 0 45 4
      vertex 0 0 4
      vertex 12.875 17.125 4
    endloop
  endfacet
  facet normal 0 0 1
    outer loop
      vertex 0 45 4
      vertex 12.875 27.875 4
      vertex 90 45 4
    endloop
  endfacet
  facet normal 0 0 1
    outer loop
      vertex 0 45 4
      vertex 12.875 17.125 4
      vertex 12.875 27.875 4
    endloop
  endfacet
  facet normal 0 0 1
    outer loop
      vertex 12.875 27.875 4
      vertex 17.625 27.875 4
      vertex 90 45 4
    endloop
  endfacet
  facet normal 0 0 1
    outer loop
      vertex 12.875 17.125 4
      vertex 0 0 4
      vertex 17.625 17.125 4
    endloop
  endfacet
  facet normal 0 0 1
    outer loop
      vertex 0 0 4
      vertex 90 0 4
      vertex 72.375 17.125 4
    endloop
  endfacet
  facet normal 0 0 1
    outer loop
      vertex 0 0 4
      vertex 72.375 27.875 4
      vertex 90 45 4
    endloop
  endfacet
  facet normal 0 0 1
    outer loop
      vertex 0 0 4
      vertex 72.375 17.125 4
      vertex 72.375 27.875 4
    endloop
  endfacet
  facet normal 0 0 1
    outer loop
      vertex 72.375 27.875 4
      vertex 77.125 27.875 4
      vertex 90 45 4
    endloop
  endfacet
  facet normal 0 0 1
    outer loop
      vertex 72.375 17.125 4
      vertex 90 0 4
      vertex 77.125 17.125 4
    endloop
  endfacet
  facet normal 0 0 1
    outer loop
      vertex 17.625 27.875 4
      vertex 17.625 17.125 4
      vertex 90 45 4
    endloop
  endfacet
  facet normal -1 0 0
    outer loop
      vertex 17.625 17.125 4
      vertex 17.625 27.875 4
      vertex 17.625 17.125 0
    endloop
  endfacet
  facet normal -1 0 0
    outer loop
      vertex 17.625 17.125 0
      vertex 17.625 27.875 4
      vertex 17.625 27.875 0
    endloop
  endfacet
  facet normal 0 -1 0
    outer loop
      vertex 0 0 0
      vertex 90 0 0
      vertex 90 0 4
    endloop
  endfacet
  facet normal 0 -1 0
    outer loop
      vertex 0 0 4
      vertex 0 0 0
      vertex 90 0 4
    endloop
  endfacet
  facet normal -1 0 0
    outer loop
      vertex 0 0 4
      vertex 0 45 4
      vertex 0 0 0
    endloop
  endfacet
  facet normal -1 0 0
    outer loop
      vertex 0 0 0
      vertex 0 45 4
      vertex 0 45 0
    endloop
  endfacet
  facet normal 1 0 0
    outer loop
      vertex 90 0 0
      vertex 90 45 0
      vertex 90 45 4
    endloop
  endfacet
  facet normal 1 0 0
    outer loop
      vertex 90 0 4
      vertex 90 0 0
      vertex 90 45 4
    endloop
  endfacet
  facet normal 0 1 0
    outer loop
      vertex 0 45 4
      vertex 90 45 4
      vertex 0 45 0
    endloop
  endfacet
  facet normal 0 1 0
    outer loop
      vertex 0 45 0
      vertex 90 45 4
      vertex 90 45 0
    endloop
  endfacet
  facet normal 0 1 0
    outer loop
      vertex 12.875 17.125 4
      vertex 17.625 17.125 4
      vertex 12.875 17.125 0
    endloop
  endfacet
  facet normal 0 1 0
    outer loop
      vertex 12.875 17.125 0
      vertex 17.625 17.125 4
      vertex 17.625 17.125 0
    endloop
  endfacet
  facet normal 0 1 0
    outer loop
      vertex 72.375 17.125 4
      vertex 77.125 17.125 4
      vertex 72.375 17.125 0
    endloop
  endfacet
  facet normal 0 1 0
    outer loop
      vertex 72.375 17.125 0
      vertex 77.125 17.125 4
      vertex 77.125 17.125 0
    endloop
  endfacet
  facet normal 1 0 0
    outer loop
      vertex 72.375 17.125 0
      vertex 72.375 27.875 0
      vertex 72.375 27.875 4
    endloop
  endfacet
  facet normal 1 0 0
    outer loop
      vertex 72.375 17.125 4
      vertex 72.375 17.125 0
      vertex 72.375 27.875 4
    endloop
  endfacet
  facet normal 0 -1 0
    outer loop
      vertex 72.375 27.875 0
      vertex 77.125 27.875 0
      vertex 77.125 27.875 4
    endloop
  endfacet
  facet normal 0 -1 0
    outer loop
      vertex 72.375 27.875 4
      vertex 72.375 27.875 0
      vertex 77.125 27.875 4
    endloop
  endfacet
  facet normal -1 0 0
    outer loop
      vertex 77.125 17.125 4
      vertex 77.125 27.875 4
      vertex 77.125 17.125 0
    endloop
  endfacet
  facet normal -1 0 0
    outer loop
      vertex 77.125 17.125 0
      vertex 77.125 27.875 4
      vertex 77.125 27.875 0
    endloop
  endfacet
endsolid OpenSCAD_Model
