solid OpenSCAD_Model
  facet normal -1 0 0
    outer loop
      vertex 0 0 0
      vertex 0 0 20
      vertex 0 45 0
    endloop
  endfacet
  facet normal -1 0 0
    outer loop
      vertex 0 45 0
      vertex 0 0 20
      vertex 0 45 20
    endloop
  endfacet
  facet normal 0 -1 0
    outer loop
      vertex 20 0 4.75
      vertex 0 0 0
      vertex 100 0 0
    endloop
  endfacet
  facet normal 0 -1 0
    outer loop
      vertex 6.06843 0 13.7973
      vertex 5.08325 0 16.8293
      vertex 0 0 20
    endloop
  endfacet
  facet normal 0 -1 0
    outer loop
      vertex 18.4059 0 4.83354
      vertex 0 0 0
      vertex 20 0 4.75
    endloop
  endfacet
  facet normal 0 -1 0
    outer loop
      vertex 20 0 4.83354
      vertex 18.4059 0 4.83354
      vertex 20 0 4.75
    endloop
  endfacet
  facet normal 0 -1 0
    outer loop
      vertex 15.2875 0 5.49639
      vertex 0 0 0
      vertex 18.4059 0 4.83354
    endloop
  endfacet
  facet normal 0 -1 0
    outer loop
      vertex 5.08325 0 16.8293
      vertex 4.75 0 20
      vertex 0 0 20
    endloop
  endfacet
  facet normal 0 -1 0
    outer loop
      vertex 12.375 0 6.79311
      vertex 0 0 0
      vertex 15.2875 0 5.49639
    endloop
  endfacet
  facet normal 0 -1 0
    outer loop
      vertex 9.79576 0 8.66704
      vertex 0 0 0
      vertex 12.375 0 6.79311
    endloop
  endfacet
  facet normal 0 -1 0
    outer loop
      vertex 7.66249 0 11.0363
      vertex 0 0 0
      vertex 9.79576 0 8.66704
    endloop
  endfacet
  facet normal 0 -1 0
    outer loop
      vertex 0 0 20
      vertex 0 0 0
      vertex 7.66249 0 11.0363
    endloop
  endfacet
  facet normal 0 -1 0
    outer loop
      vertex 7.66249 0 11.0363
      vertex 6.06843 0 13.7973
      vertex 0 0 20
    endloop
  endfacet
  facet normal 0 -1 0
    outer loop
      vertex 100 0 4.75
      vertex 20 0 4.75
      vertex 100 0 0
    endloop
  endfacet
  facet normal 0 0 -1
    outer loop
      vertex 18.625 27.875 0
      vertex 0 45 0
      vertex 100 0 0
    endloop
  endfacet
  facet normal 0 0 -1
    outer loop
      vertex 81.375 27.875 0
      vertex 0 45 0
      vertex 80 45 0
    endloop
  endfacet
  facet normal 0 0 -1
    outer loop
      vertex 100 0 0
      vertex 80 45 0
      vertex 100 45 0
    endloop
  endfacet
  facet normal 0 0 -1
    outer loop
      vertex 0 0 0
      vertex 0 45 0
      vertex 13.125 27.875 0
    endloop
  endfacet
  facet normal 0 0 -1
    outer loop
      vertex 0 0 0
      vertex 13.125 27.875 0
      vertex 13.125 17.125 0
    endloop
  endfacet
  facet normal 0 0 -1
    outer loop
      vertex 0 0 0
      vertex 13.125 17.125 0
      vertex 100 0 0
    endloop
  endfacet
  facet normal 0 0 -1
    outer loop
      vertex 13.125 17.125 0
      vertex 18.625 17.125 0
      vertex 100 0 0
    endloop
  endfacet
  facet normal 0 0 -1
    outer loop
      vertex 13.125 27.875 0
      vertex 0 45 0
      vertex 18.625 27.875 0
    endloop
  endfacet
  facet normal 0 0 -1
    outer loop
      vertex 86.875 27.875 0
      vertex 100 0 0
      vertex 86.875 17.125 0
    endloop
  endfacet
  facet normal 0 0 -1
    outer loop
      vertex 81.375 17.125 0
      vertex 0 45 0
      vertex 81.375 27.875 0
    endloop
  endfacet
  facet normal 0 0 -1
    outer loop
      vertex 86.875 27.875 0
      vertex 81.375 27.875 0
      vertex 80 45 0
    endloop
  endfacet
  facet normal 0 0 -1
    outer loop
      vertex 100 0 0
      vertex 0 45 0
      vertex 81.375 17.125 0
    endloop
  endfacet
  facet normal 0 0 -1
    outer loop
      vertex 100 0 0
      vertex 81.375 17.125 0
      vertex 86.875 17.125 0
    endloop
  endfacet
  facet normal 0 0 -1
    outer loop
      vertex 100 0 0
      vertex 86.875 27.875 0
      vertex 80 45 0
    endloop
  endfacet
  facet normal 0 0 -1
    outer loop
      vertex 18.625 27.875 0
      vertex 100 0 0
      vertex 18.625 17.125 0
    endloop
  endfacet
  facet normal 0 1 0
    outer loop
      vertex 80 45 4.75
      vertex 80 45 0
      vertex 20 45 4.75
    endloop
  endfacet
  facet normal 0 1 0
    outer loop
      vertex 0 45 0
      vertex 0 45 20
      vertex 5.08325 45 16.8293
    endloop
  endfacet
  facet normal 0 1 0
    outer loop
      vertex 0 45 0
      vertex 5.08325 45 16.8293
      vertex 6.06843 45 13.7973
    endloop
  endfacet
  facet normal 0 1 0
    outer loop
      vertex 0 45 0
      vertex 6.06843 45 13.7973
      vertex 7.66249 45 11.0363
    endloop
  endfacet
  facet normal 0 1 0
    outer loop
      vertex 0 45 0
      vertex 7.66249 45 11.0363
      vertex 9.79576 45 8.66704
    endloop
  endfacet
  facet normal 0 1 0
    outer loop
      vertex 0 45 0
      vertex 9.79576 45 8.66704
      vertex 12.375 45 6.79311
    endloop
  endfacet
  facet normal 0 1 0
    outer loop
      vertex 0 45 0
      vertex 12.375 45 6.79311
      vertex 15.2875 45 5.49639
    endloop
  endfacet
  facet normal 0 1 0
    outer loop
      vertex 0 45 0
      vertex 15.2875 45 5.49639
      vertex 18.4059 45 4.83354
    endloop
  endfacet
  facet normal 0 1 0
    outer loop
      vertex 0 45 0
      vertex 18.4059 45 4.83354
      vertex 80 45 0
    endloop
  endfacet
  facet normal 0 1 0
    outer loop
      vertex 18.4059 45 4.83354
      vertex 20 45 4.83354
      vertex 20 45 4.75
    endloop
  endfacet
  facet normal 0 1 0
    outer loop
      vertex 18.4059 45 4.83354
      vertex 20 45 4.75
      vertex 80 45 0
    endloop
  endfacet
  facet normal 0 1 0
    outer loop
      vertex 5.08325 45 16.8293
      vertex 0 45 20
      vertex 4.75 45 20
    endloop
  endfacet
  facet normal 0 0 1
    outer loop
      vertex 0 45 20
      vertex 0 0 20
      vertex 4.75 0 20
    endloop
  endfacet
  facet normal 0 0 1
    outer loop
      vertex 4.75 4.75 20
      vertex 0 45 20
      vertex 4.75 0 20
    endloop
  endfacet
  facet normal 0 0 1
    outer loop
      vertex 4.75 45 20
      vertex 0 45 20
      vertex 4.75 40.25 20
    endloop
  endfacet
  facet normal 0 0 1
    outer loop
      vertex 4.75 4.75 20
      vertex 4.75 40.25 20
      vertex 0 45 20
    endloop
  endfacet
  facet normal 0.994522 2.321e-17 0.104528
    outer loop
      vertex 4.75 0 20
      vertex 5.08325 0 16.8293
      vertex 5.08325 4.75 16.8293
    endloop
  endfacet
  facet normal 0.994522 2.321e-17 0.104528
    outer loop
      vertex 4.75 4.75 20
      vertex 4.75 0 20
      vertex 5.08325 4.75 16.8293
    endloop
  endfacet
  facet normal 0.951057 6.86156e-17 0.309017
    outer loop
      vertex 6.06843 0 13.7973
      vertex 6.06843 4.75 13.7973
      vertex 5.08325 4.75 16.8293
    endloop
  endfacet
  facet normal 0.951057 6.86156e-17 0.309017
    outer loop
      vertex 5.08325 0 16.8293
      vertex 6.06843 0 13.7973
      vertex 5.08325 4.75 16.8293
    endloop
  endfacet
  facet normal 0.866025 1.11022e-16 0.5
    outer loop
      vertex 7.66249 0 11.0363
      vertex 7.66249 4.75 11.0363
      vertex 6.06843 4.75 13.7973
    endloop
  endfacet
  facet normal 0.866025 1.11022e-16 0.5
    outer loop
      vertex 6.06843 0 13.7973
      vertex 7.66249 0 11.0363
      vertex 6.06843 4.75 13.7973
    endloop
  endfacet
  facet normal 0.743145 1.48577e-16 0.66913
    outer loop
      vertex 9.79576 0 8.66704
      vertex 9.79576 4.75 8.66704
      vertex 7.66249 4.75 11.0363
    endloop
  endfacet
  facet normal 0.743145 1.48577e-16 0.66913
    outer loop
      vertex 7.66249 0 11.0363
      vertex 9.79576 0 8.66704
      vertex 7.66249 4.75 11.0363
    endloop
  endfacet
  facet normal 0.587785 1.79638e-16 0.809017
    outer loop
      vertex 12.375 0 6.79311
      vertex 12.375 4.75 6.79311
      vertex 9.79576 4.75 8.66704
    endloop
  endfacet
  facet normal 0.587785 1.79638e-16 0.809017
    outer loop
      vertex 9.79576 0 8.66704
      vertex 12.375 0 6.79311
      vertex 9.79576 4.75 8.66704
    endloop
  endfacet
  facet normal 0.406737 2.02848e-16 0.913545
    outer loop
      vertex 15.2875 0 5.49639
      vertex 15.2875 4.75 5.49639
      vertex 12.375 4.75 6.79311
    endloop
  endfacet
  facet normal 0.406737 2.02848e-16 0.913545
    outer loop
      vertex 12.375 0 6.79311
      vertex 15.2875 0 5.49639
      vertex 12.375 4.75 6.79311
    endloop
  endfacet
  facet normal 0.207912 2.17192e-16 0.978148
    outer loop
      vertex 18.4059 0 4.83354
      vertex 18.4059 4.75 4.83354
      vertex 15.2875 4.75 5.49639
    endloop
  endfacet
  facet normal 0.207912 2.17192e-16 0.978148
    outer loop
      vertex 15.2875 0 5.49639
      vertex 18.4059 0 4.83354
      vertex 15.2875 4.75 5.49639
    endloop
  endfacet
  facet normal 0 2.22045e-16 1
    outer loop
      vertex 20 0 4.83354
      vertex 20 4.75 4.83354
      vertex 18.4059 4.75 4.83354
    endloop
  endfacet
  facet normal 0 2.22045e-16 1
    outer loop
      vertex 18.4059 0 4.83354
      vertex 20 0 4.83354
      vertex 18.4059 4.75 4.83354
    endloop
  endfacet
  facet normal 1 0 0
    outer loop
      vertex 20 0 4.83354
      vertex 20 0 4.75
      vertex 20 4.75 4.75
    endloop
  endfacet
  facet normal 1 0 0
    outer loop
      vertex 20 4.75 4.83354
      vertex 20 0 4.83354
      vertex 20 4.75 4.75
    endloop
  endfacet
  facet normal 0 0 1
    outer loop
      vertex 13.125 17.125 4.75
      vertex 13.125 27.875 4.75
      vertex 4.75 40.25 4.75
    endloop
  endfacet
  facet normal 0 0 1
    outer loop
      vertex 13.125 17.125 4.75
      vertex 4.75 4.75 4.75
      vertex 20 4.75 4.75
    endloop
  endfacet
  facet normal 0 0 1
    outer loop
      vertex 18.625 27.875 4.75
      vertex 18.625 17.125 4.75
      vertex 80 4.75 4.75
    endloop
  endfacet
  facet normal 0 0 1
    outer loop
      vertex 80 4.75 4.75
      vertex 95.25 4.75 4.75
      vertex 4.75 40.25 4.75
    endloop
  endfacet
  facet normal 0 0 1
    outer loop
      vertex 20 0 4.75
      vertex 80 2.44929e-15 4.75
      vertex 20 4.75 4.75
    endloop
  endfacet
  facet normal 0 0 1
    outer loop
      vertex 20 0 4.75
      vertex 100 0 4.75
      vertex 80 2.44929e-15 4.75
    endloop
  endfacet
  facet normal 0 0 1
    outer loop
      vertex 20 45 4.75
      vertex 80 40.25 4.75
      vertex 80 45 4.75
    endloop
  endfacet
  facet normal 0 0 1
    outer loop
      vertex 18.625 17.125 4.75
      vertex 13.125 17.125 4.75
      vertex 20 4.75 4.75
    endloop
  endfacet
  facet normal 0 0 1
    outer loop
      vertex 95.25 4.75 4.75
      vertex 20 40.25 4.75
      vertex 4.75 40.25 4.75
    endloop
  endfacet
  facet normal 0 0 1
    outer loop
      vertex 81.375 27.875 4.75
      vertex 95.25 40.25 4.75
      vertex 20 40.25 4.75
    endloop
  endfacet
  facet normal 0 0 1
    outer loop
      vertex 4.75 40.25 4.75
      vertex 4.75 4.75 4.75
      vertex 13.125 17.125 4.75
    endloop
  endfacet
  facet normal 0 0 1
    outer loop
      vertex 18.625 27.875 4.75
      vertex 4.75 40.25 4.75
      vertex 13.125 27.875 4.75
    endloop
  endfacet
  facet normal 0 0 1
    outer loop
      vertex 86.875 27.875 4.75
      vertex 86.875 17.125 4.75
      vertex 95.25 40.25 4.75
    endloop
  endfacet
  facet normal 0 0 1
    outer loop
      vertex 80 4.75 4.75
      vertex 4.75 40.25 4.75
      vertex 18.625 27.875 4.75
    endloop
  endfacet
  facet normal 0 0 1
    outer loop
      vertex 80 4.75 4.75
      vertex 18.625 17.125 4.75
      vertex 20 4.75 4.75
    endloop
  endfacet
  facet normal 0 0 1
    outer loop
      vertex 95.25 4.75 4.75
      vertex 81.375 17.125 4.75
      vertex 20 40.25 4.75
    endloop
  endfacet
  facet normal 0 0 1
    outer loop
      vertex 81.375 17.125 4.75
      vertex 81.375 27.875 4.75
      vertex 20 40.25 4.75
    endloop
  endfacet
  facet normal 0 0 1
    outer loop
      vertex 86.875 27.875 4.75
      vertex 95.25 40.25 4.75
      vertex 81.375 27.875 4.75
    endloop
  endfacet
  facet normal 0 0 1
    outer loop
      vertex 95.25 4.75 4.75
      vertex 86.875 17.125 4.75
      vertex 81.375 17.125 4.75
    endloop
  endfacet
  facet normal 0 0 1
    outer loop
      vertex 95.25 4.75 4.75
      vertex 95.25 40.25 4.75
      vertex 86.875 17.125 4.75
    endloop
  endfacet
  facet normal 0 0 1
    outer loop
      vertex 80 2.44929e-15 4.75
      vertex 80 4.75 4.75
      vertex 20 4.75 4.75
    endloop
  endfacet
  facet normal 0 0 1
    outer loop
      vertex 80 40.25 4.75
      vertex 20 40.25 4.75
      vertex 95.25 40.25 4.75
    endloop
  endfacet
  facet normal 0 0 1
    outer loop
      vertex 20 45 4.75
      vertex 20 40.25 4.75
      vertex 80 40.25 4.75
    endloop
  endfacet
  facet normal -1.22465e-16 -1 0
    outer loop
      vertex 80 2.44929e-15 4.83354
      vertex 80 2.44929e-15 4.75
      vertex 100 0 4.75
    endloop
  endfacet
  facet normal -1.22465e-16 -1 0
    outer loop
      vertex 81.5941 2.25408e-15 4.83354
      vertex 80 2.44929e-15 4.83354
      vertex 100 0 4.75
    endloop
  endfacet
  facet normal -1.22465e-16 -1 0
    outer loop
      vertex 95.25 5.81707e-16 20
      vertex 94.9168 6.22518e-16 16.8293
      vertex 100 0 20
    endloop
  endfacet
  facet normal -1.22465e-16 -1 0
    outer loop
      vertex 100 0 20
      vertex 93.9316 7.43169e-16 13.7973
      vertex 100 0 4.75
    endloop
  endfacet
  facet normal -1.22465e-16 -1 0
    outer loop
      vertex 93.9316 7.43169e-16 13.7973
      vertex 92.3375 9.38385e-16 11.0363
      vertex 100 0 4.75
    endloop
  endfacet
  facet normal -1.22465e-16 -1 0
    outer loop
      vertex 92.3375 9.38385e-16 11.0363
      vertex 90.2042 1.19963e-15 8.66704
      vertex 100 0 4.75
    endloop
  endfacet
  facet normal -1.22465e-16 -1 0
    outer loop
      vertex 90.2042 1.19963e-15 8.66704
      vertex 87.625 1.5155e-15 6.79311
      vertex 100 0 4.75
    endloop
  endfacet
  facet normal -1.22465e-16 -1 0
    outer loop
      vertex 87.625 1.5155e-15 6.79311
      vertex 84.7125 1.87218e-15 5.49639
      vertex 100 0 4.75
    endloop
  endfacet
  facet normal -1.22465e-16 -1 0
    outer loop
      vertex 84.7125 1.87218e-15 5.49639
      vertex 81.5941 2.25408e-15 4.83354
      vertex 100 0 4.75
    endloop
  endfacet
  facet normal -1.22465e-16 -1 0
    outer loop
      vertex 94.9168 6.22518e-16 16.8293
      vertex 93.9316 7.43169e-16 13.7973
      vertex 100 0 20
    endloop
  endfacet
  facet normal 1 -1.22465e-16 0
    outer loop
      vertex 100 0 20
      vertex 100 0 4.75
      vertex 100 45 4.75
    endloop
  endfacet
  facet normal 1 -1.22465e-16 0
    outer loop
      vertex 100 45 20
      vertex 100 0 20
      vertex 100 45 4.75
    endloop
  endfacet
  facet normal 1 0 0
    outer loop
      vertex 100 0 4.75
      vertex 100 0 0
      vertex 100 45 0
    endloop
  endfacet
  facet normal 1 0 0
    outer loop
      vertex 100 45 4.75
      vertex 100 0 4.75
      vertex 100 45 0
    endloop
  endfacet
  facet normal 1.22465e-16 1 0
    outer loop
      vertex 80 45 0
      vertex 80 45 4.83354
      vertex 100 45 0
    endloop
  endfacet
  facet normal 1.22465e-16 1 0
    outer loop
      vertex 100 45 0
      vertex 80 45 4.83354
      vertex 81.5941 45 4.83354
    endloop
  endfacet
  facet normal 1.22465e-16 1 0
    outer loop
      vertex 100 45 0
      vertex 81.5941 45 4.83354
      vertex 84.7125 45 5.49639
    endloop
  endfacet
  facet normal 1.22465e-16 1 0
    outer loop
      vertex 84.7125 45 5.49639
      vertex 87.625 45 6.79311
      vertex 100 45 0
    endloop
  endfacet
  facet normal 1.22465e-16 1 0
    outer loop
      vertex 87.625 45 6.79311
      vertex 90.2042 45 8.66704
      vertex 100 45 0
    endloop
  endfacet
  facet normal 1.22465e-16 1 0
    outer loop
      vertex 90.2042 45 8.66704
      vertex 92.3375 45 11.0363
      vertex 100 45 0
    endloop
  endfacet
  facet normal 1.22465e-16 1 0
    outer loop
      vertex 92.3375 45 11.0363
      vertex 93.9316 45 13.7973
      vertex 100 45 0
    endloop
  endfacet
  facet normal 1.22465e-16 1 0
    outer loop
      vertex 93.9316 45 13.7973
      vertex 94.9168 45 16.8293
      vertex 100 45 0
    endloop
  endfacet
  facet normal 1.22465e-16 1 0
    outer loop
      vertex 94.9168 45 16.8293
      vertex 95.25 45 20
      vertex 100 45 0
    endloop
  endfacet
  facet normal 1.22465e-16 1 0
    outer loop
      vertex 100 45 4.75
      vertex 95.25 45 20
      vertex 100 45 20
    endloop
  endfacet
  facet normal 1.22465e-16 1 0
    outer loop
      vertex 100 45 0
      vertex 95.25 45 20
      vertex 100 45 4.75
    endloop
  endfacet
  facet normal -1 1.22465e-16 0
    outer loop
      vertex 80 40.25 4.75
      vertex 80 40.25 4.83354
      vertex 80 45 4.75
    endloop
  endfacet
  facet normal -1 1.22465e-16 0
    outer loop
      vertex 80 45 4.75
      vertex 80 40.25 4.83354
      vertex 80 45 4.83354
    endloop
  endfacet
  facet normal -1 1.22465e-16 0
    outer loop
      vertex 80 45 4.75
      vertex 80 45 4.83354
      vertex 80 45 0
    endloop
  endfacet
  facet normal 0 -1 0
    outer loop
      vertex 13.125 27.875 4.75
      vertex 13.125 27.875 0
      vertex 18.625 27.875 0
    endloop
  endfacet
  facet normal 0 -1 0
    outer loop
      vertex 18.625 27.875 4.75
      vertex 13.125 27.875 4.75
      vertex 18.625 27.875 0
    endloop
  endfacet
  facet normal 1 0 0
    outer loop
      vertex 13.125 17.125 4.75
      vertex 13.125 17.125 0
      vertex 13.125 27.875 0
    endloop
  endfacet
  facet normal 1 0 0
    outer loop
      vertex 13.125 27.875 4.75
      vertex 13.125 17.125 4.75
      vertex 13.125 27.875 0
    endloop
  endfacet
  facet normal -1 0 0
    outer loop
      vertex 18.625 17.125 0
      vertex 18.625 17.125 4.75
      vertex 18.625 27.875 0
    endloop
  endfacet
  facet normal -1 0 0
    outer loop
      vertex 18.625 27.875 0
      vertex 18.625 17.125 4.75
      vertex 18.625 27.875 4.75
    endloop
  endfacet
  facet normal 0 1 0
    outer loop
      vertex 13.125 17.125 0
      vertex 13.125 17.125 4.75
      vertex 18.625 17.125 0
    endloop
  endfacet
  facet normal 0 1 0
    outer loop
      vertex 18.625 17.125 0
      vertex 13.125 17.125 4.75
      vertex 18.625 17.125 4.75
    endloop
  endfacet
  facet normal 0 -1 0
    outer loop
      vertex 81.375 27.875 4.75
      vertex 81.375 27.875 0
      vertex 86.875 27.875 0
    endloop
  endfacet
  facet normal 0 -1 0
    outer loop
      vertex 86.875 27.875 4.75
      vertex 81.375 27.875 4.75
      vertex 86.875 27.875 0
    endloop
  endfacet
  facet normal 1 0 0
    outer loop
      vertex 81.375 17.125 4.75
      vertex 81.375 17.125 0
      vertex 81.375 27.875 0
    endloop
  endfacet
  facet normal 1 0 0
    outer loop
      vertex 81.375 27.875 4.75
      vertex 81.375 17.125 4.75
      vertex 81.375 27.875 0
    endloop
  endfacet
  facet normal -1 0 0
    outer loop
      vertex 86.875 17.125 0
      vertex 86.875 17.125 4.75
      vertex 86.875 27.875 0
    endloop
  endfacet
  facet normal -1 0 0
    outer loop
      vertex 86.875 27.875 0
      vertex 86.875 17.125 4.75
      vertex 86.875 27.875 4.75
    endloop
  endfacet
  facet normal 0 1 0
    outer loop
      vertex 81.375 17.125 0
      vertex 81.375 17.125 4.75
      vertex 86.875 17.125 0
    endloop
  endfacet
  facet normal 0 1 0
    outer loop
      vertex 86.875 17.125 0
      vertex 81.375 17.125 4.75
      vertex 86.875 17.125 4.75
    endloop
  endfacet
  facet normal 1 0 0
    outer loop
      vertex 20 40.25 4.83354
      vertex 20 40.25 4.75
      vertex 20 45 4.75
    endloop
  endfacet
  facet normal 1 0 0
    outer loop
      vertex 20 45 4.83354
      vertex 20 40.25 4.83354
      vertex 20 45 4.75
    endloop
  endfacet
  facet normal 0 2.22045e-16 1
    outer loop
      vertex 20 40.25 4.83354
      vertex 20 45 4.83354
      vertex 18.4059 45 4.83354
    endloop
  endfacet
  facet normal 0 2.22045e-16 1
    outer loop
      vertex 18.4059 40.25 4.83354
      vertex 20 40.25 4.83354
      vertex 18.4059 45 4.83354
    endloop
  endfacet
  facet normal 0.207912 2.17192e-16 0.978148
    outer loop
      vertex 18.4059 40.25 4.83354
      vertex 18.4059 45 4.83354
      vertex 15.2875 45 5.49639
    endloop
  endfacet
  facet normal 0.207912 2.17192e-16 0.978148
    outer loop
      vertex 15.2875 40.25 5.49639
      vertex 18.4059 40.25 4.83354
      vertex 15.2875 45 5.49639
    endloop
  endfacet
  facet normal 0.406737 2.02848e-16 0.913545
    outer loop
      vertex 15.2875 40.25 5.49639
      vertex 15.2875 45 5.49639
      vertex 12.375 45 6.79311
    endloop
  endfacet
  facet normal 0.406737 2.02848e-16 0.913545
    outer loop
      vertex 12.375 40.25 6.79311
      vertex 15.2875 40.25 5.49639
      vertex 12.375 45 6.79311
    endloop
  endfacet
  facet normal 0.587785 1.79638e-16 0.809017
    outer loop
      vertex 12.375 40.25 6.79311
      vertex 12.375 45 6.79311
      vertex 9.79576 45 8.66704
    endloop
  endfacet
  facet normal 0.587785 1.79638e-16 0.809017
    outer loop
      vertex 9.79576 40.25 8.66704
      vertex 12.375 40.25 6.79311
      vertex 9.79576 45 8.66704
    endloop
  endfacet
  facet normal 0.743145 1.48577e-16 0.66913
    outer loop
      vertex 9.79576 40.25 8.66704
      vertex 9.79576 45 8.66704
      vertex 7.66249 45 11.0363
    endloop
  endfacet
  facet normal 0.743145 1.48577e-16 0.66913
    outer loop
      vertex 7.66249 40.25 11.0363
      vertex 9.79576 40.25 8.66704
      vertex 7.66249 45 11.0363
    endloop
  endfacet
  facet normal 0.866025 1.11022e-16 0.5
    outer loop
      vertex 7.66249 40.25 11.0363
      vertex 7.66249 45 11.0363
      vertex 6.06843 45 13.7973
    endloop
  endfacet
  facet normal 0.866025 1.11022e-16 0.5
    outer loop
      vertex 6.06843 40.25 13.7973
      vertex 7.66249 40.25 11.0363
      vertex 6.06843 45 13.7973
    endloop
  endfacet
  facet normal 0.951057 6.86156e-17 0.309017
    outer loop
      vertex 6.06843 40.25 13.7973
      vertex 6.06843 45 13.7973
      vertex 5.08325 45 16.8293
    endloop
  endfacet
  facet normal 0.951057 6.86156e-17 0.309017
    outer loop
      vertex 5.08325 40.25 16.8293
      vertex 6.06843 40.25 13.7973
      vertex 5.08325 45 16.8293
    endloop
  endfacet
  facet normal 0.994522 2.321e-17 0.104528
    outer loop
      vertex 4.75 40.25 20
      vertex 5.08325 40.25 16.8293
      vertex 5.08325 45 16.8293
    endloop
  endfacet
  facet normal 0.994522 2.321e-17 0.104528
    outer loop
      vertex 4.75 45 20
      vertex 4.75 40.25 20
      vertex 5.08325 45 16.8293
    endloop
  endfacet
  facet normal 0 -1 0
    outer loop
      vertex 18.4059 40.25 4.83354
      vertex 4.75 40.25 4.75
      vertex 20 40.25 4.75
    endloop
  endfacet
  facet normal 0 -1 0
    outer loop
      vertex 15.2875 40.25 5.49639
      vertex 4.75 40.25 4.75
      vertex 18.4059 40.25 4.83354
    endloop
  endfacet
  facet normal 0 -1 0
    outer loop
      vertex 12.375 40.25 6.79311
      vertex 4.75 40.25 4.75
      vertex 15.2875 40.25 5.49639
    endloop
  endfacet
  facet normal 0 -1 0
    outer loop
      vertex 9.79576 40.25 8.66704
      vertex 4.75 40.25 4.75
      vertex 12.375 40.25 6.79311
    endloop
  endfacet
  facet normal 0 -1 0
    outer loop
      vertex 7.66249 40.25 11.0363
      vertex 4.75 40.25 4.75
      vertex 9.79576 40.25 8.66704
    endloop
  endfacet
  facet normal 0 -1 0
    outer loop
      vertex 6.06843 40.25 13.7973
      vertex 4.75 40.25 4.75
      vertex 7.66249 40.25 11.0363
    endloop
  endfacet
  facet normal 0 -1 0
    outer loop
      vertex 5.08325 40.25 16.8293
      vertex 4.75 40.25 4.75
      vertex 6.06843 40.25 13.7973
    endloop
  endfacet
  facet normal 0 -1 0
    outer loop
      vertex 4.75 40.25 20
      vertex 4.75 40.25 4.75
      vertex 5.08325 40.25 16.8293
    endloop
  endfacet
  facet normal 0 -1 0
    outer loop
      vertex 20 40.25 4.83354
      vertex 18.4059 40.25 4.83354
      vertex 20 40.25 4.75
    endloop
  endfacet
  facet normal 1 0 0
    outer loop
      vertex 4.75 4.75 20
      vertex 4.75 4.75 4.75
      vertex 4.75 40.25 4.75
    endloop
  endfacet
  facet normal 1 0 0
    outer loop
      vertex 4.75 40.25 20
      vertex 4.75 4.75 20
      vertex 4.75 40.25 4.75
    endloop
  endfacet
  facet normal 0 1 0
    outer loop
      vertex 20 4.75 4.83354
      vertex 20 4.75 4.75
      vertex 18.4059 4.75 4.83354
    endloop
  endfacet
  facet normal 0 1 0
    outer loop
      vertex 4.75 4.75 4.75
      vertex 4.75 4.75 20
      vertex 5.08325 4.75 16.8293
    endloop
  endfacet
  facet normal 0 1 0
    outer loop
      vertex 4.75 4.75 4.75
      vertex 5.08325 4.75 16.8293
      vertex 6.06843 4.75 13.7973
    endloop
  endfacet
  facet normal 0 1 0
    outer loop
      vertex 4.75 4.75 4.75
      vertex 6.06843 4.75 13.7973
      vertex 7.66249 4.75 11.0363
    endloop
  endfacet
  facet normal 0 1 0
    outer loop
      vertex 4.75 4.75 4.75
      vertex 7.66249 4.75 11.0363
      vertex 9.79576 4.75 8.66704
    endloop
  endfacet
  facet normal 0 1 0
    outer loop
      vertex 4.75 4.75 4.75
      vertex 9.79576 4.75 8.66704
      vertex 12.375 4.75 6.79311
    endloop
  endfacet
  facet normal 0 1 0
    outer loop
      vertex 4.75 4.75 4.75
      vertex 12.375 4.75 6.79311
      vertex 15.2875 4.75 5.49639
    endloop
  endfacet
  facet normal 0 1 0
    outer loop
      vertex 4.75 4.75 4.75
      vertex 15.2875 4.75 5.49639
      vertex 18.4059 4.75 4.83354
    endloop
  endfacet
  facet normal 0 1 0
    outer loop
      vertex 4.75 4.75 4.75
      vertex 18.4059 4.75 4.83354
      vertex 20 4.75 4.75
    endloop
  endfacet
  facet normal -1.22465e-16 -1 0
    outer loop
      vertex 80 40.25 4.83354
      vertex 80 40.25 4.75
      vertex 95.25 40.25 4.75
    endloop
  endfacet
  facet normal -1.22465e-16 -1 0
    outer loop
      vertex 81.5941 40.25 4.83354
      vertex 80 40.25 4.83354
      vertex 95.25 40.25 4.75
    endloop
  endfacet
  facet normal -1.22465e-16 -1 0
    outer loop
      vertex 95.25 40.25 20
      vertex 94.9168 40.25 16.8293
      vertex 95.25 40.25 4.75
    endloop
  endfacet
  facet normal -1.22465e-16 -1 0
    outer loop
      vertex 94.9168 40.25 16.8293
      vertex 93.9316 40.25 13.7973
      vertex 95.25 40.25 4.75
    endloop
  endfacet
  facet normal -1.22465e-16 -1 0
    outer loop
      vertex 93.9316 40.25 13.7973
      vertex 92.3375 40.25 11.0363
      vertex 95.25 40.25 4.75
    endloop
  endfacet
  facet normal -1.22465e-16 -1 0
    outer loop
      vertex 92.3375 40.25 11.0363
      vertex 90.2042 40.25 8.66704
      vertex 95.25 40.25 4.75
    endloop
  endfacet
  facet normal -1.22465e-16 -1 0
    outer loop
      vertex 90.2042 40.25 8.66704
      vertex 87.625 40.25 6.79311
      vertex 95.25 40.25 4.75
    endloop
  endfacet
  facet normal -1.22465e-16 -1 0
    outer loop
      vertex 87.625 40.25 6.79311
      vertex 84.7125 40.25 5.49639
      vertex 95.25 40.25 4.75
    endloop
  endfacet
  facet normal -1.22465e-16 -1 0
    outer loop
      vertex 84.7125 40.25 5.49639
      vertex 81.5941 40.25 4.83354
      vertex 95.25 40.25 4.75
    endloop
  endfacet
  facet normal -1 1.22465e-16 0
    outer loop
      vertex 95.25 4.75 4.75
      vertex 95.25 4.75 20
      vertex 95.25 40.25 4.75
    endloop
  endfacet
  facet normal -1 1.22465e-16 0
    outer loop
      vertex 95.25 40.25 4.75
      vertex 95.25 4.75 20
      vertex 95.25 40.25 20
    endloop
  endfacet
  facet normal 1.22465e-16 1 0
    outer loop
      vertex 80 4.75 4.75
      vertex 80 4.75 4.83354
      vertex 95.25 4.75 4.75
    endloop
  endfacet
  facet normal 1.22465e-16 1 0
    outer loop
      vertex 95.25 4.75 4.75
      vertex 80 4.75 4.83354
      vertex 81.5941 4.75 4.83354
    endloop
  endfacet
  facet normal 1.22465e-16 1 0
    outer loop
      vertex 95.25 4.75 4.75
      vertex 81.5941 4.75 4.83354
      vertex 84.7125 4.75 5.49639
    endloop
  endfacet
  facet normal 1.22465e-16 1 0
    outer loop
      vertex 84.7125 4.75 5.49639
      vertex 87.625 4.75 6.79311
      vertex 95.25 4.75 4.75
    endloop
  endfacet
  facet normal 1.22465e-16 1 0
    outer loop
      vertex 87.625 4.75 6.79311
      vertex 90.2042 4.75 8.66704
      vertex 95.25 4.75 4.75
    endloop
  endfacet
  facet normal 1.22465e-16 1 0
    outer loop
      vertex 90.2042 4.75 8.66704
      vertex 92.3375 4.75 11.0363
      vertex 95.25 4.75 4.75
    endloop
  endfacet
  facet normal 1.22465e-16 1 0
    outer loop
      vertex 92.3375 4.75 11.0363
      vertex 93.9316 4.75 13.7973
      vertex 95.25 4.75 4.75
    endloop
  endfacet
  facet normal 1.22465e-16 1 0
    outer loop
      vertex 93.9316 4.75 13.7973
      vertex 94.9168 4.75 16.8293
      vertex 95.25 4.75 4.75
    endloop
  endfacet
  facet normal 1.22465e-16 1 0
    outer loop
      vertex 94.9168 4.75 16.8293
      vertex 95.25 4.75 20
      vertex 95.25 4.75 4.75
    endloop
  endfacet
  facet normal -1 1.22465e-16 0
    outer loop
      vertex 80 2.44929e-15 4.75
      vertex 80 2.44929e-15 4.83354
      vertex 80 4.75 4.75
    endloop
  endfacet
  facet normal -1 1.22465e-16 0
    outer loop
      vertex 80 4.75 4.75
      vertex 80 2.44929e-15 4.83354
      vertex 80 4.75 4.83354
    endloop
  endfacet
  facet normal -2.71926e-32 -2.22045e-16 1
    outer loop
      vertex 81.5941 2.25408e-15 4.83354
      vertex 81.5941 4.75 4.83354
      vertex 80 4.75 4.83354
    endloop
  endfacet
  facet normal -2.71926e-32 -2.22045e-16 1
    outer loop
      vertex 80 2.44929e-15 4.83354
      vertex 81.5941 2.25408e-15 4.83354
      vertex 80 4.75 4.83354
    endloop
  endfacet
  facet normal -0.207912 -1.91731e-16 0.978148
    outer loop
      vertex 84.7125 1.87218e-15 5.49639
      vertex 84.7125 4.75 5.49639
      vertex 81.5941 4.75 4.83354
    endloop
  endfacet
  facet normal -0.207912 -1.91731e-16 0.978148
    outer loop
      vertex 81.5941 2.25408e-15 4.83354
      vertex 84.7125 1.87218e-15 5.49639
      vertex 81.5941 4.75 4.83354
    endloop
  endfacet
  facet normal -0.406737 -1.53037e-16 0.913545
    outer loop
      vertex 87.625 1.5155e-15 6.79311
      vertex 87.625 4.75 6.79311
      vertex 84.7125 4.75 5.49639
    endloop
  endfacet
  facet normal -0.406737 -1.53037e-16 0.913545
    outer loop
      vertex 84.7125 1.87218e-15 5.49639
      vertex 87.625 1.5155e-15 6.79311
      vertex 84.7125 4.75 5.49639
    endloop
  endfacet
  facet normal -0.587785 -1.07655e-16 0.809017
    outer loop
      vertex 90.2042 1.19963e-15 8.66704
      vertex 90.2042 4.75 8.66704
      vertex 87.625 4.75 6.79311
    endloop
  endfacet
  facet normal -0.587785 -1.07655e-16 0.809017
    outer loop
      vertex 87.625 1.5155e-15 6.79311
      vertex 90.2042 1.19963e-15 8.66704
      vertex 87.625 4.75 6.79311
    endloop
  endfacet
  facet normal -0.743145 -5.75678e-17 0.66913
    outer loop
      vertex 92.3375 4.75 11.0363
      vertex 90.2042 4.75 8.66704
      vertex 92.3375 9.38385e-16 11.0363
    endloop
  endfacet
  facet normal -0.743145 -5.75678e-17 0.66913
    outer loop
      vertex 92.3375 9.38385e-16 11.0363
      vertex 90.2042 4.75 8.66704
      vertex 90.2042 1.19963e-15 8.66704
    endloop
  endfacet
  facet normal -0.866025 -4.96479e-18 0.5
    outer loop
      vertex 93.9316 4.75 13.7973
      vertex 92.3375 4.75 11.0363
      vertex 93.9316 7.43169e-16 13.7973
    endloop
  endfacet
  facet normal -0.866025 -4.96479e-18 0.5
    outer loop
      vertex 93.9316 7.43169e-16 13.7973
      vertex 92.3375 4.75 11.0363
      vertex 92.3375 9.38385e-16 11.0363
    endloop
  endfacet
  facet normal -0.951057 4.78553e-17 0.309017
    outer loop
      vertex 94.9168 4.75 16.8293
      vertex 93.9316 4.75 13.7973
      vertex 94.9168 6.22518e-16 16.8293
    endloop
  endfacet
  facet normal -0.951057 4.78553e-17 0.309017
    outer loop
      vertex 94.9168 6.22518e-16 16.8293
      vertex 93.9316 4.75 13.7973
      vertex 93.9316 7.43169e-16 13.7973
    endloop
  endfacet
  facet normal -0.994522 9.85838e-17 0.104528
    outer loop
      vertex 95.25 4.75 20
      vertex 94.9168 4.75 16.8293
      vertex 95.25 5.81707e-16 20
    endloop
  endfacet
  facet normal -0.994522 9.85838e-17 0.104528
    outer loop
      vertex 95.25 5.81707e-16 20
      vertex 94.9168 4.75 16.8293
      vertex 94.9168 6.22518e-16 16.8293
    endloop
  endfacet
  facet normal 0 0 1
    outer loop
      vertex 95.25 4.75 20
      vertex 95.25 5.81707e-16 20
      vertex 100 0 20
    endloop
  endfacet
  facet normal 0 0 1
    outer loop
      vertex 95.25 45 20
      vertex 95.25 40.25 20
      vertex 100 45 20
    endloop
  endfacet
  facet normal 0 0 1
    outer loop
      vertex 100 45 20
      vertex 95.25 4.75 20
      vertex 100 0 20
    endloop
  endfacet
  facet normal 0 0 1
    outer loop
      vertex 95.25 40.25 20
      vertex 95.25 4.75 20
      vertex 100 45 20
    endloop
  endfacet
  facet normal -0.994522 9.85838e-17 0.104528
    outer loop
      vertex 95.25 45 20
      vertex 94.9168 45 16.8293
      vertex 95.25 40.25 20
    endloop
  endfacet
  facet normal -0.994522 9.85838e-17 0.104528
    outer loop
      vertex 95.25 40.25 20
      vertex 94.9168 45 16.8293
      vertex 94.9168 40.25 16.8293
    endloop
  endfacet
  facet normal -0.951057 4.78553e-17 0.309017
    outer loop
      vertex 94.9168 45 16.8293
      vertex 93.9316 45 13.7973
      vertex 94.9168 40.25 16.8293
    endloop
  endfacet
  facet normal -0.951057 4.78553e-17 0.309017
    outer loop
      vertex 94.9168 40.25 16.8293
      vertex 93.9316 45 13.7973
      vertex 93.9316 40.25 13.7973
    endloop
  endfacet
  facet normal -0.866025 -4.96479e-18 0.5
    outer loop
      vertex 93.9316 45 13.7973
      vertex 92.3375 45 11.0363
      vertex 93.9316 40.25 13.7973
    endloop
  endfacet
  facet normal -0.866025 -4.96479e-18 0.5
    outer loop
      vertex 93.9316 40.25 13.7973
      vertex 92.3375 45 11.0363
      vertex 92.3375 40.25 11.0363
    endloop
  endfacet
  facet normal -0.743145 -5.75678e-17 0.66913
    outer loop
      vertex 92.3375 45 11.0363
      vertex 90.2042 45 8.66704
      vertex 92.3375 40.25 11.0363
    endloop
  endfacet
  facet normal -0.743145 -5.75678e-17 0.66913
    outer loop
      vertex 92.3375 40.25 11.0363
      vertex 90.2042 45 8.66704
      vertex 90.2042 40.25 8.66704
    endloop
  endfacet
  facet normal -0.587785 -1.07655e-16 0.809017
    outer loop
      vertex 90.2042 40.25 8.66704
      vertex 90.2042 45 8.66704
      vertex 87.625 45 6.79311
    endloop
  endfacet
  facet normal -0.587785 -1.07655e-16 0.809017
    outer loop
      vertex 87.625 40.25 6.79311
      vertex 90.2042 40.25 8.66704
      vertex 87.625 45 6.79311
    endloop
  endfacet
  facet normal -0.406737 -1.53037e-16 0.913545
    outer loop
      vertex 87.625 40.25 6.79311
      vertex 87.625 45 6.79311
      vertex 84.7125 45 5.49639
    endloop
  endfacet
  facet normal -0.406737 -1.53037e-16 0.913545
    outer loop
      vertex 84.7125 40.25 5.49639
      vertex 87.625 40.25 6.79311
      vertex 84.7125 45 5.49639
    endloop
  endfacet
  facet normal -0.207912 -1.91731e-16 0.978148
    outer loop
      vertex 84.7125 40.25 5.49639
      vertex 84.7125 45 5.49639
      vertex 81.5941 45 4.83354
    endloop
  endfacet
  facet normal -0.207912 -1.91731e-16 0.978148
    outer loop
      vertex 81.5941 40.25 4.83354
      vertex 84.7125 40.25 5.49639
      vertex 81.5941 45 4.83354
    endloop
  endfacet
  facet normal -2.71926e-32 -2.22045e-16 1
    outer loop
      vertex 81.5941 40.25 4.83354
      vertex 81.5941 45 4.83354
      vertex 80 45 4.83354
    endloop
  endfacet
  facet normal -2.71926e-32 -2.22045e-16 1
    outer loop
      vertex 80 40.25 4.83354
      vertex 81.5941 40.25 4.83354
      vertex 80 45 4.83354
    endloop
  endfacet
endsolid OpenSCAD_Model
