<?xml version="1.0" encoding="utf-8"?>
<!-- Generator: Adobe Illustrator 16.0.0, SVG Export Plug-In . SVG Version: 6.00 Build 0)  -->
<!DOCTYPE svg PUBLIC "-//W3C//DTD SVG 1.1//EN" "http://www.w3.org/Graphics/SVG/1.1/DTD/svg11.dtd">
<svg version="1.1" id="Layer_1" xmlns="http://www.w3.org/2000/svg" xmlns:xlink="http://www.w3.org/1999/xlink" x="0px" y="0px"
	 width="184px" height="225px" viewBox="0 0 184 225" enable-background="new 0 0 184 225" xml:space="preserve">
<title>OpenSCAD Model</title>
<g>
	<path fill="#D3D3D3" stroke="#000000" stroke-width="0.5" d="M0.353,131.029h5v4.75h10v-4.75h50.5v4.75h10v-4.75h5v-63.5h-5v-4.75
		h-10v4.75h-50.5v-4.75h-10v4.75h-5V131.029z M13.428,108.18l0.009-0.142l0.026-0.139l0.044-0.134l0.061-0.128l0.075-0.119
		l0.09-0.109l0.104-0.097l0.114-0.083l0.124-0.068l0.131-0.052l0.137-0.035l0.141-0.018h0.141l0.141,0.018l0.137,0.035l0.132,0.052
		l0.123,0.068l0.114,0.083l0.104,0.097l0.09,0.109l0.076,0.119l0.06,0.128l0.044,0.134l0.026,0.139l0.009,0.142l-0.009,0.141
		l-0.026,0.139l-0.044,0.135l-0.06,0.128l-0.076,0.119l-0.09,0.108l-0.104,0.097l-0.114,0.084l-0.123,0.067l-0.132,0.052
		l-0.137,0.035l-0.141,0.019h-0.141l-0.141-0.019l-0.137-0.035l-0.131-0.052l-0.124-0.067l-0.114-0.084l-0.104-0.097l-0.09-0.108
		l-0.075-0.119l-0.061-0.128l-0.044-0.135l-0.026-0.139L13.428,108.18z M13.428,80.279l0.009-0.141L13.463,80l0.044-0.135
		l0.061-0.128l0.075-0.119l0.09-0.108l0.104-0.097l0.114-0.083l0.124-0.068l0.131-0.052l0.137-0.035l0.141-0.019h0.141l0.141,0.019
		L14.9,79.21l0.132,0.052l0.123,0.068l0.114,0.083l0.104,0.097l0.09,0.108l0.076,0.119l0.06,0.128L15.643,80l0.026,0.139
		l0.009,0.141l-0.009,0.142l-0.026,0.139l-0.044,0.134l-0.06,0.128l-0.076,0.119l-0.09,0.109l-0.104,0.097l-0.114,0.083
		l-0.123,0.068L14.9,81.35l-0.137,0.035l-0.141,0.018h-0.141l-0.141-0.018l-0.137-0.035l-0.131-0.052l-0.124-0.068l-0.114-0.083
		l-0.104-0.097l-0.09-0.109l-0.075-0.119l-0.061-0.128l-0.044-0.134l-0.026-0.139L13.428,80.279z M64.228,123.38l0.009-0.142
		l0.026-0.139l0.044-0.134l0.061-0.128l0.075-0.119l0.091-0.109l0.103-0.097l0.114-0.083l0.124-0.068l0.131-0.052l0.137-0.035
		l0.141-0.018h0.142l0.14,0.018l0.137,0.035l0.132,0.052l0.124,0.068l0.114,0.083l0.103,0.097l0.09,0.109l0.076,0.119l0.06,0.128
		l0.044,0.134l0.026,0.139l0.009,0.142l-0.009,0.141l-0.026,0.139l-0.044,0.135l-0.06,0.128l-0.076,0.119l-0.09,0.108l-0.103,0.097
		l-0.114,0.083l-0.124,0.068l-0.132,0.052l-0.137,0.035l-0.14,0.018h-0.142l-0.141-0.018l-0.137-0.035l-0.131-0.052l-0.124-0.068
		l-0.114-0.083l-0.103-0.097l-0.091-0.108l-0.075-0.119l-0.061-0.128l-0.044-0.135l-0.026-0.139L64.228,123.38z M65.527,75.18
		l0.01-0.142l0.026-0.139l0.043-0.134l0.061-0.128l0.075-0.119l0.091-0.109l0.103-0.097l0.114-0.083l0.124-0.067l0.131-0.053
		l0.138-0.035l0.14-0.018h0.142l0.14,0.018L67,74.109l0.132,0.053l0.124,0.067l0.114,0.083l0.103,0.097l0.09,0.109l0.076,0.119
		l0.061,0.128l0.043,0.134l0.026,0.139l0.009,0.142l-0.009,0.141l-0.026,0.139l-0.043,0.135l-0.061,0.128l-0.076,0.119l-0.09,0.108
		l-0.103,0.097l-0.114,0.084l-0.124,0.067L67,76.25l-0.137,0.034l-0.14,0.019h-0.142l-0.14-0.019l-0.138-0.034l-0.131-0.053
		L66.05,76.13l-0.114-0.084l-0.103-0.097l-0.091-0.108l-0.075-0.119l-0.061-0.128l-0.043-0.135l-0.026-0.139L65.527,75.18z
		 M1.221,206.029h5.825v4.75h10v-4.75h58.705v4.75h10v-4.75h5v-63.5h-5v-4.75h-10v4.75H17.046v-4.75h-10v4.75H1.221V206.029z
		 M12.096,186.779l0.009-0.141l0.027-0.139l0.043-0.135l0.061-0.128l0.075-0.119l0.091-0.108l0.103-0.097l0.114-0.083l0.124-0.068
		l0.131-0.052l0.137-0.035l0.141-0.019h0.142l0.14,0.019l0.137,0.035l0.132,0.052l0.124,0.068l0.114,0.083l0.103,0.097l0.09,0.108
		l0.076,0.119l0.06,0.128l0.044,0.135l0.026,0.139l0.009,0.141l-0.009,0.142l-0.026,0.139l-0.044,0.134l-0.06,0.128l-0.076,0.119
		l-0.09,0.109l-0.103,0.097l-0.114,0.083l-0.124,0.068l-0.132,0.052l-0.137,0.035l-0.14,0.018H13.15l-0.141-0.018l-0.137-0.035
		l-0.131-0.052l-0.124-0.068l-0.114-0.083l-0.103-0.097l-0.091-0.109l-0.075-0.119l-0.061-0.128l-0.043-0.134l-0.027-0.139
		L12.096,186.779z M12.096,161.779l0.009-0.141l0.027-0.139l0.043-0.135l0.061-0.128l0.075-0.119l0.091-0.108l0.103-0.097
		l0.114-0.083l0.124-0.068l0.131-0.052l0.137-0.035l0.141-0.019h0.142l0.14,0.019l0.137,0.035l0.132,0.052l0.124,0.068l0.114,0.083
		l0.103,0.097l0.09,0.108l0.076,0.119l0.06,0.128l0.044,0.135l0.026,0.139l0.009,0.141l-0.009,0.142l-0.026,0.139l-0.044,0.134
		l-0.06,0.128l-0.076,0.119l-0.09,0.109l-0.103,0.097l-0.114,0.083l-0.124,0.068l-0.132,0.052l-0.137,0.035l-0.14,0.018H13.15
		l-0.141-0.018l-0.137-0.035l-0.131-0.052l-0.124-0.068l-0.114-0.083l-0.103-0.097l-0.091-0.109l-0.075-0.119l-0.061-0.128
		l-0.043-0.134l-0.027-0.139L12.096,161.779z M25.751,197.779v-5h2.5v5H25.751z M25.751,155.779v-5h2.5v5H25.751z M70.751,197.779
		v-5h2.5v5H70.751z M70.751,155.779v-5h2.5v5H70.751z M30.751,32.779l0.236,3.76l0.706,3.701l1.164,3.583l1.604,3.409l2.019,3.181
		l2.401,2.902l2.746,2.579l3.048,2.215l3.302,1.814l3.503,1.388l3.648,0.937l3.738,0.473h3.768l3.737-0.473l3.649-0.937l3.503-1.388
		l3.301-1.814l3.048-2.215l2.747-2.579l2.401-2.902l2.019-3.181l1.604-3.409l1.165-3.583l0.706-3.701l0.236-3.76l-0.236-3.76
		l-0.706-3.701l-1.165-3.583l-1.604-3.408l-2.019-3.182l-2.401-2.902l-2.747-2.579l-3.048-2.215l-3.301-1.814l-3.503-1.388
		l-3.649-0.937l-3.737-0.472h-3.768l-3.738,0.472L51.48,4.247l-3.503,1.388l-3.302,1.814l-3.048,2.215l-2.746,2.579l-2.401,2.902
		l-2.019,3.182l-1.604,3.408l-1.164,3.583l-0.706,3.701L30.751,32.779z M57.647,32.635l0.006-0.101l0.113-0.099l0.002-0.033
		l0.07-0.37l0.01-0.031l-0.067-0.134l0.03-0.095l0.134-0.068l0.011-0.031l0.16-0.342l0.018-0.027l-0.032-0.146l0.054-0.084
		l0.146-0.033l0.018-0.027l0.241-0.291l0.023-0.022l0.005-0.149l0.073-0.069l0.149,0.005l0.023-0.022l0.306-0.222l0.029-0.016
		l0.042-0.144l0.087-0.049l0.145,0.042l0.028-0.016l0.351-0.14l0.032-0.008l0.076-0.129l0.097-0.024l0.129,0.076l0.032-0.009
		l0.374-0.047h0.033l0.106-0.106h0.1l0.105,0.106h0.033l0.375,0.047l0.031,0.009l0.129-0.076l0.097,0.024l0.076,0.129l0.032,0.008
		l0.351,0.14l0.029,0.016l0.144-0.042l0.088,0.049l0.042,0.144l0.028,0.016l0.306,0.222l0.024,0.022l0.149-0.005l0.072,0.069
		l0.005,0.149l0.024,0.022l0.24,0.291L63.2,31.04l0.146,0.033l0.054,0.084l-0.033,0.146l0.018,0.027l0.161,0.342l0.01,0.031
		l0.134,0.068l0.031,0.095l-0.068,0.134l0.01,0.031l0.071,0.37l0.002,0.033l0.112,0.099l0.006,0.101l-0.099,0.112l0.002,0.032
		l-0.023,0.377l-0.006,0.032l0.084,0.124l-0.019,0.099l-0.124,0.084l-0.007,0.032l-0.116,0.358l-0.014,0.03l0.051,0.141
		l-0.043,0.091l-0.141,0.051l-0.015,0.029l-0.202,0.319l-0.021,0.025l0.014,0.148l-0.063,0.077l-0.149,0.015l-0.021,0.025
		l-0.275,0.258l-0.026,0.02l-0.023,0.147l-0.081,0.06l-0.148-0.023l-0.026,0.019L62.03,35.5L62,35.512l-0.06,0.138l-0.093,0.036
		l-0.138-0.059l-0.03,0.012l-0.365,0.094l-0.033,0.004l-0.092,0.119l-0.099,0.012l-0.119-0.092l-0.032,0.005h-0.378l-0.032-0.005
		l-0.118,0.092l-0.1-0.012l-0.092-0.119l-0.032-0.004l-0.366-0.094l-0.03-0.012l-0.138,0.059l-0.093-0.036l-0.06-0.138l-0.03-0.012
		l-0.331-0.183l-0.026-0.019l-0.147,0.023l-0.081-0.06l-0.023-0.147l-0.027-0.02l-0.274-0.258l-0.021-0.025l-0.148-0.015
		l-0.064-0.077l0.015-0.148l-0.021-0.025l-0.202-0.319l-0.014-0.029l-0.141-0.051l-0.043-0.091l0.051-0.141l-0.014-0.03
		l-0.117-0.358l-0.006-0.032l-0.124-0.084l-0.019-0.099l0.084-0.124l-0.006-0.032l-0.024-0.377l0.002-0.032L57.647,32.635z
		 M59.626,47.779v-8l0.009-0.141l0.026-0.139l0.044-0.135l0.06-0.128l0.076-0.119l0.09-0.108l0.103-0.097l0.114-0.083l0.124-0.068
		l0.132-0.052l0.137-0.035l0.14-0.019h0.142l0.141,0.019l0.137,0.035l0.131,0.052l0.124,0.068l0.114,0.083l0.104,0.097l0.09,0.108
		l0.075,0.119l0.061,0.128l0.044,0.135l0.026,0.139l0.009,0.141v8l-0.009,0.142l-0.026,0.139l-0.044,0.134l-0.061,0.128
		l-0.075,0.119l-0.09,0.109l-0.104,0.097l-0.114,0.083l-0.124,0.068l-0.131,0.052l-0.137,0.035l-0.141,0.018H60.68l-0.14-0.018
		l-0.137-0.035l-0.132-0.052l-0.124-0.068l-0.114-0.083l-0.103-0.097l-0.09-0.109l-0.076-0.119l-0.06-0.128l-0.044-0.134
		l-0.026-0.139L59.626,47.779z M59.626,25.779v-8l0.009-0.141l0.026-0.139l0.044-0.135l0.06-0.128l0.076-0.119l0.09-0.108
		l0.103-0.097l0.114-0.083l0.124-0.068l0.132-0.052l0.137-0.035l0.14-0.019h0.142l0.141,0.019l0.137,0.035l0.131,0.052l0.124,0.068
		l0.114,0.083l0.104,0.097l0.09,0.108l0.075,0.119l0.061,0.128l0.044,0.135l0.026,0.139l0.009,0.141v8l-0.009,0.142l-0.026,0.139
		l-0.044,0.134l-0.061,0.128l-0.075,0.119l-0.09,0.109l-0.104,0.097l-0.114,0.083l-0.124,0.068l-0.131,0.052l-0.137,0.035
		l-0.141,0.018H60.68l-0.14-0.018l-0.137-0.035l-0.132-0.052l-0.124-0.068l-0.114-0.083l-0.103-0.097l-0.09-0.109l-0.076-0.119
		l-0.06-0.128l-0.044-0.134l-0.026-0.139L59.626,25.779z M82.853,104.029h100v-45h-100V104.029z M95.978,86.904v-10.75h5.5v10.75
		H95.978z M164.228,86.904v-10.75h5.5v10.75H164.228z M92.252,138.646l4.593,0.81l-4.094,23.573h90.397v-57h-80.5l-4.094,23.574
		l-4.566-0.806L92.252,138.646z M99.068,158.404v-5.5h10.75v5.5H99.068z M107.273,116.154v-5.5h10.75v5.5H107.273z M115.023,147.529
		l0.009-0.141l0.026-0.139l0.044-0.135l0.061-0.128l0.075-0.119l0.091-0.108l0.103-0.097l0.114-0.083l0.124-0.068l0.131-0.052
		l0.137-0.035l0.141-0.019h0.142l0.14,0.019l0.137,0.035l0.132,0.052l0.124,0.068l0.114,0.083l0.103,0.097l0.09,0.108l0.076,0.119
		l0.06,0.128l0.044,0.135l0.026,0.139l0.009,0.141l-0.009,0.142l-0.026,0.139l-0.044,0.134l-0.06,0.128l-0.076,0.119l-0.09,0.109
		l-0.103,0.097l-0.114,0.083l-0.124,0.068l-0.132,0.052l-0.137,0.035l-0.14,0.018h-0.142l-0.141-0.018l-0.137-0.035l-0.131-0.052
		l-0.124-0.068l-0.114-0.083l-0.103-0.097l-0.091-0.109l-0.075-0.119l-0.061-0.128l-0.044-0.134l-0.026-0.139L115.023,147.529z
		 M115.023,137.529l0.009-0.141l0.026-0.139l0.044-0.135l0.061-0.128l0.075-0.119l0.091-0.108l0.103-0.097l0.114-0.083l0.124-0.068
		l0.131-0.052l0.137-0.035l0.141-0.019h0.142l0.14,0.019l0.137,0.035l0.132,0.052l0.124,0.068l0.114,0.083l0.103,0.097l0.09,0.108
		l0.076,0.119l0.06,0.128l0.044,0.135l0.026,0.139l0.009,0.141l-0.009,0.142l-0.026,0.139l-0.044,0.134l-0.06,0.128l-0.076,0.119
		l-0.09,0.109l-0.103,0.097l-0.114,0.083l-0.124,0.068l-0.132,0.052l-0.137,0.035l-0.14,0.018h-0.142l-0.141-0.018l-0.137-0.035
		l-0.131-0.052l-0.124-0.068l-0.114-0.083l-0.103-0.097l-0.091-0.109l-0.075-0.119l-0.061-0.128l-0.044-0.134l-0.026-0.139
		L115.023,137.529z M120.648,153.279v-21.5h42.5v7.75h2l0.688,0.006l0.374,0.048l0.365,0.094l0.35,0.139l0.33,0.181l0.305,0.222
		l0.275,0.258l0.24,0.291l0.201,0.317l0.161,0.341l0.116,0.358l0.07,0.37l0.023,0.376l-0.023,0.376l-0.07,0.37l-0.116,0.358
		l-0.161,0.341l-0.201,0.318l-0.24,0.29l-0.275,0.258l-0.305,0.222l-0.33,0.182l-0.35,0.139l-0.365,0.094l-0.374,0.047l-0.688,0.006
		h-2v7.75H120.648z M166.523,147.529l0.009-0.141l0.026-0.139l0.044-0.135l0.061-0.128l0.075-0.119l0.09-0.108l0.104-0.097
		l0.114-0.083l0.124-0.068l0.131-0.052l0.137-0.035l0.141-0.019h0.142l0.14,0.019l0.137,0.035l0.132,0.052l0.123,0.068l0.115,0.083
		l0.103,0.097l0.09,0.108l0.076,0.119l0.06,0.128l0.044,0.135l0.026,0.139l0.009,0.141l-0.009,0.142l-0.026,0.139l-0.044,0.134
		l-0.06,0.128l-0.076,0.119l-0.09,0.109l-0.103,0.097l-0.115,0.083l-0.123,0.068l-0.132,0.052l-0.137,0.035l-0.14,0.018h-0.142
		l-0.141-0.018l-0.137-0.035l-0.131-0.052l-0.124-0.068l-0.114-0.083l-0.104-0.097l-0.09-0.109l-0.075-0.119l-0.061-0.128
		l-0.044-0.134l-0.026-0.139L166.523,147.529z M166.523,137.529l0.009-0.141l0.026-0.139l0.044-0.135l0.061-0.128l0.075-0.119
		l0.09-0.108l0.104-0.097l0.114-0.083l0.124-0.068l0.131-0.052l0.137-0.035l0.141-0.019h0.142l0.14,0.019l0.137,0.035l0.132,0.052
		l0.123,0.068l0.115,0.083l0.103,0.097l0.09,0.108l0.076,0.119l0.06,0.128l0.044,0.135l0.026,0.139l0.009,0.141l-0.009,0.142
		l-0.026,0.139l-0.044,0.134l-0.06,0.128l-0.076,0.119l-0.09,0.109l-0.103,0.097l-0.115,0.083l-0.123,0.068l-0.132,0.052
		l-0.137,0.035l-0.14,0.018h-0.142l-0.141-0.018l-0.137-0.035l-0.131-0.052l-0.124-0.068l-0.114-0.083l-0.104-0.097l-0.09-0.109
		l-0.075-0.119l-0.061-0.128l-0.044-0.134l-0.026-0.139L166.523,137.529z M167.773,158.404v-5.5h10.75v5.5H167.773z
		 M167.773,116.154v-5.5h10.75v5.5H167.773z M92.751,195.029l0.236,3.76l0.706,3.701l1.164,3.583l1.604,3.409l2.019,3.181
		l2.401,2.903l2.746,2.578l3.048,2.215l3.302,1.815l3.503,1.387l3.648,0.937l3.738,0.473h3.768l3.737-0.473l3.649-0.937l3.503-1.387
		l3.301-1.815l3.048-2.215l2.747-2.578l2.401-2.903l2.019-3.181l1.604-3.409l1.165-3.583l0.705-3.701l0.237-3.76l-0.237-3.76
		l-0.705-3.701l-1.165-3.583l-1.604-3.408l-2.019-3.182l-2.401-2.902l-2.747-2.579l-3.048-2.214l-3.301-1.815l-3.503-1.387
		l-3.649-0.938l-3.737-0.472h-3.768l-3.738,0.472l-3.648,0.938l-3.503,1.387l-3.302,1.815l-3.048,2.214l-2.746,2.579l-2.401,2.902
		l-2.019,3.182l-1.604,3.408l-1.164,3.583l-0.706,3.701L92.751,195.029z M119.647,194.885l0.006-0.101l0.113-0.099l0.002-0.033
		l0.07-0.37l0.01-0.031l-0.067-0.134l0.03-0.095l0.134-0.068l0.011-0.031l0.16-0.342l0.018-0.027l-0.032-0.146l0.054-0.084
		l0.146-0.033l0.018-0.027l0.241-0.291l0.023-0.022l0.005-0.149l0.073-0.069l0.149,0.005l0.023-0.022l0.306-0.222l0.029-0.016
		l0.042-0.144l0.087-0.049l0.145,0.042l0.028-0.016l0.351-0.139l0.032-0.009l0.076-0.129l0.097-0.024l0.129,0.076l0.032-0.009
		l0.374-0.047h0.033l0.106-0.106h0.1l0.105,0.106h0.033l0.375,0.047l0.031,0.009l0.129-0.076l0.097,0.024l0.076,0.129l0.032,0.009
		l0.351,0.139l0.029,0.016l0.144-0.042l0.088,0.049l0.042,0.144l0.028,0.016l0.306,0.222l0.024,0.022l0.149-0.005l0.072,0.069
		l0.005,0.149l0.024,0.022l0.24,0.291l0.018,0.027l0.146,0.033l0.054,0.084l-0.033,0.146l0.018,0.027l0.161,0.342l0.01,0.031
		l0.134,0.068l0.031,0.095l-0.068,0.134l0.01,0.031l0.071,0.37l0.002,0.033l0.112,0.099l0.006,0.101l-0.099,0.112l0.002,0.032
		l-0.023,0.377l-0.006,0.032l0.084,0.124l-0.019,0.099l-0.124,0.084l-0.007,0.032l-0.116,0.358l-0.014,0.03l0.051,0.141
		l-0.043,0.091l-0.141,0.051l-0.015,0.029l-0.202,0.319l-0.021,0.025l0.014,0.148l-0.063,0.077l-0.149,0.015l-0.021,0.025
		l-0.275,0.258l-0.026,0.02l-0.023,0.147l-0.081,0.06l-0.148-0.023l-0.026,0.019l-0.331,0.183l-0.03,0.012l-0.06,0.138l-0.093,0.036
		l-0.138-0.059l-0.03,0.012l-0.365,0.094l-0.033,0.004l-0.092,0.119l-0.099,0.012l-0.119-0.092l-0.032,0.005h-0.378l-0.032-0.005
		l-0.118,0.092l-0.1-0.012l-0.092-0.119l-0.032-0.004l-0.366-0.094l-0.03-0.012l-0.138,0.059l-0.093-0.036l-0.06-0.138l-0.03-0.012
		l-0.331-0.183l-0.026-0.019l-0.147,0.023l-0.081-0.06l-0.023-0.147l-0.027-0.02l-0.274-0.258l-0.021-0.025l-0.148-0.015
		l-0.064-0.077l0.015-0.148l-0.021-0.025l-0.202-0.319l-0.014-0.029l-0.141-0.051l-0.043-0.091l0.051-0.141l-0.014-0.03
		l-0.117-0.358l-0.006-0.032l-0.124-0.084l-0.019-0.099l0.084-0.124l-0.006-0.032l-0.024-0.377l0.002-0.032L119.647,194.885z
		 M121.626,210.029v-8l0.009-0.141l0.026-0.139l0.044-0.135l0.06-0.128l0.076-0.119l0.09-0.108l0.103-0.097l0.114-0.083l0.124-0.068
		l0.132-0.052l0.137-0.035l0.14-0.019h0.142l0.141,0.019l0.137,0.035l0.131,0.052l0.124,0.068l0.114,0.083l0.104,0.097l0.09,0.108
		l0.075,0.119l0.061,0.128l0.044,0.135l0.026,0.139l0.009,0.141v8l-0.009,0.142l-0.026,0.139l-0.044,0.134l-0.061,0.128
		l-0.075,0.119l-0.09,0.109l-0.104,0.097l-0.114,0.083l-0.124,0.068l-0.131,0.052l-0.137,0.035l-0.141,0.018h-0.142l-0.14-0.018
		l-0.137-0.035l-0.132-0.052l-0.124-0.068l-0.114-0.083l-0.103-0.097l-0.09-0.109l-0.076-0.119l-0.06-0.128l-0.044-0.134
		l-0.026-0.139L121.626,210.029z M121.626,188.029v-8l0.009-0.141l0.026-0.139l0.044-0.135l0.06-0.128l0.076-0.119l0.09-0.108
		l0.103-0.097l0.114-0.083l0.124-0.068l0.132-0.052l0.137-0.035l0.14-0.019h0.142l0.141,0.019l0.137,0.035l0.131,0.052l0.124,0.068
		l0.114,0.083l0.104,0.097l0.09,0.108l0.075,0.119l0.061,0.128l0.044,0.135l0.026,0.139l0.009,0.141v8l-0.009,0.142l-0.026,0.139
		l-0.044,0.134l-0.061,0.128l-0.075,0.119l-0.09,0.109l-0.104,0.097l-0.114,0.083l-0.124,0.068l-0.131,0.052l-0.137,0.035
		l-0.141,0.018h-0.142l-0.14-0.018l-0.137-0.035l-0.132-0.052l-0.124-0.068l-0.114-0.083l-0.103-0.097l-0.09-0.109l-0.076-0.119
		l-0.06-0.128l-0.044-0.134l-0.026-0.139L121.626,188.029z M92.751,57.029h90.397l-4.094-23.573l4.593-0.81l-1.736-9.849
		l-4.566,0.806l-4.094-23.574h-80.5V57.029z M97.376,52.404v-5.5h10.75v5.5H97.376z M97.376,10.154v-5.5h10.75v5.5H97.376z
		 M107.126,41.529l0.009-0.141l0.026-0.139l0.044-0.135l0.06-0.128l0.076-0.119l0.09-0.108l0.103-0.097l0.114-0.083l0.124-0.068
		l0.132-0.052l0.137-0.035l0.14-0.019h0.142l0.141,0.019l0.137,0.035l0.131,0.052l0.124,0.068l0.114,0.083l0.104,0.097l0.09,0.108
		l0.075,0.119l0.061,0.128l0.044,0.135l0.026,0.139l0.009,0.141l-0.009,0.142l-0.026,0.139l-0.044,0.134l-0.061,0.128l-0.075,0.119
		l-0.09,0.109l-0.104,0.097l-0.114,0.083l-0.124,0.068l-0.131,0.052l-0.137,0.035l-0.141,0.018h-0.142l-0.14-0.018l-0.137-0.035
		l-0.132-0.052l-0.124-0.068l-0.114-0.083l-0.103-0.097l-0.09-0.109l-0.076-0.119l-0.06-0.128l-0.044-0.134l-0.026-0.139
		L107.126,41.529z M107.126,31.529l0.009-0.141l0.026-0.139l0.044-0.135l0.06-0.128l0.076-0.119l0.09-0.108l0.103-0.097l0.114-0.083
		l0.124-0.068l0.132-0.052l0.137-0.035l0.14-0.019h0.142l0.141,0.019l0.137,0.035l0.131,0.052l0.124,0.068l0.114,0.083l0.104,0.097
		l0.09,0.108l0.075,0.119l0.061,0.128l0.044,0.135l0.026,0.139l0.009,0.141l-0.009,0.142l-0.026,0.139l-0.044,0.134l-0.061,0.128
		l-0.075,0.119l-0.09,0.109l-0.104,0.097l-0.114,0.083l-0.124,0.068l-0.131,0.052l-0.137,0.035l-0.141,0.018h-0.142l-0.14-0.018
		l-0.137-0.035l-0.132-0.052l-0.124-0.068l-0.114-0.083l-0.103-0.097l-0.09-0.109l-0.076-0.119l-0.06-0.128l-0.044-0.134
		l-0.026-0.139L107.126,31.529z M107.251,36.529l0.023-0.376l0.07-0.37l0.117-0.358l0.16-0.341l0.202-0.318l0.239-0.29l0.275-0.258
		l0.305-0.222l0.33-0.181l0.351-0.139l0.364-0.094l0.374-0.048l0.688-0.006h2v-7.75h42.5v21.5h-42.5v-7.75h-2l-0.688-0.006
		l-0.374-0.047l-0.364-0.094l-0.351-0.139l-0.33-0.182l-0.305-0.222l-0.275-0.258l-0.239-0.29l-0.202-0.318l-0.16-0.341
		l-0.117-0.358l-0.07-0.37L107.251,36.529z M157.876,10.154v-5.5h10.75v5.5H157.876z M158.626,41.529l0.009-0.141l0.026-0.139
		l0.044-0.135l0.06-0.128l0.076-0.119l0.09-0.108l0.103-0.097l0.114-0.083l0.124-0.068l0.132-0.052l0.137-0.035l0.14-0.019h0.142
		l0.141,0.019l0.137,0.035l0.131,0.052l0.124,0.068l0.114,0.083l0.104,0.097l0.09,0.108l0.075,0.119l0.061,0.128l0.044,0.135
		l0.026,0.139l0.009,0.141l-0.009,0.142l-0.026,0.139l-0.044,0.134l-0.061,0.128l-0.075,0.119l-0.09,0.109l-0.104,0.097
		l-0.114,0.083l-0.124,0.068l-0.131,0.052l-0.137,0.035l-0.141,0.018h-0.142l-0.14-0.018l-0.137-0.035l-0.132-0.052l-0.124-0.068
		l-0.114-0.083l-0.103-0.097l-0.09-0.109l-0.076-0.119l-0.06-0.128l-0.044-0.134l-0.026-0.139L158.626,41.529z M158.626,31.529
		l0.009-0.141l0.026-0.139l0.044-0.135l0.06-0.128l0.076-0.119l0.09-0.108l0.103-0.097l0.114-0.083l0.124-0.068l0.132-0.052
		l0.137-0.035l0.14-0.019h0.142l0.141,0.019l0.137,0.035l0.131,0.052l0.124,0.068l0.114,0.083l0.104,0.097l0.09,0.108l0.075,0.119
		l0.061,0.128l0.044,0.135l0.026,0.139l0.009,0.141l-0.009,0.142l-0.026,0.139l-0.044,0.134l-0.061,0.128l-0.075,0.119l-0.09,0.109
		l-0.104,0.097l-0.114,0.083l-0.124,0.068l-0.131,0.052l-0.137,0.035l-0.141,0.018h-0.142l-0.14-0.018l-0.137-0.035l-0.132-0.052
		l-0.124-0.068l-0.114-0.083l-0.103-0.097l-0.09-0.109l-0.076-0.119l-0.06-0.128l-0.044-0.134l-0.026-0.139L158.626,31.529z
		 M166.081,52.404v-5.5h10.75v5.5H166.081z"/>
</g>
</svg>
